<svg width="98" height="119" viewBox="0 0 98 119" fill="none" xmlns="http://www.w3.org/2000/svg">
<rect width="98" height="119" fill="white" fill-opacity="0.01"></rect>
<path d="M10.2016 54.0263C15.2405 49.0215 22.074 46.21 29.1992 46.21C36.3244 46.21 43.1579 49.0215 48.1967 54.0263C53.2356 59.0311 60.0691 61.8427 67.1943 61.8427C74.3195 61.8427 81.1529 59.0311 86.1918 54.0263L96.3934 86.9051C89.9997 93.25 81.3322 96.814 72.2951 96.814C63.258 96.814 54.5905 93.25 48.1967 86.9051C45.0362 83.7539 41.2805 81.2535 37.1452 79.5474C33.0098 77.8414 28.5761 76.9631 24.0984 76.9631C19.6206 76.9631 15.1869 77.8414 11.0515 79.5474C6.91618 81.2535 3.16053 83.7539 0 86.9051L10.2016 54.0263Z" fill="#253858"></path>
<path d="M49.8836 83.8324C50.5356 82.8643 50.9731 81.7696 51.1669 80.6207C51.3608 79.4719 51.3067 78.2953 51.0082 77.1689V77.1689C50.5531 75.5222 49.593 74.0573 48.2615 72.9776C46.9299 71.8978 45.2929 71.2569 43.5779 71.1437L28.2352 70.226C26.9224 70.1499 25.6478 69.7578 24.5213 69.0835C23.3948 68.4093 22.4502 67.4731 21.7689 66.3556L21.2066 65.4777C20.4797 64.2829 19.4542 63.2949 18.2298 62.6098C17.0053 61.9247 15.6234 61.5656 14.218 61.5674H7.83197L0 86.9048C6.3467 80.5912 14.9468 77.0237 23.9283 76.9788C32.9097 76.934 41.5455 80.4155 47.9557 86.6654L49.8836 83.8324Z" fill="#48CC8C"></path>
<path d="M86.1918 54.0264C81.8931 58.2967 76.2638 60.9927 70.2235 61.674C64.1832 62.3552 58.0889 60.9815 52.936 57.7771L56.7516 64.6003C57.1079 65.2549 57.6274 65.8078 58.2602 66.2061C58.8931 66.6043 59.6183 66.8345 60.3664 66.8746L64.5836 67.1141C65.3588 67.1644 66.1072 67.415 66.7549 67.8412C67.4025 68.2673 67.9269 68.8542 68.2759 69.5437C68.6249 70.2332 68.7865 71.0013 68.7448 71.7719C68.703 72.5426 68.4592 73.289 68.0377 73.9372V73.9372C67.695 74.445 67.4628 75.0182 67.3561 75.6203C67.2493 76.2224 67.2704 76.84 67.4178 77.4335C67.5653 78.027 67.8359 78.5834 68.2124 79.067C68.5889 79.5505 69.0629 79.9506 69.6041 80.2416L70.5278 80.7205C73.8879 82.5774 77.8081 83.1722 81.5729 82.3963C82.2066 82.2582 82.8632 82.2618 83.4953 82.4067C84.1274 82.5516 84.7192 82.8343 85.2278 83.2343L93.3008 89.5786C94.3877 88.7535 95.4206 87.8606 96.3934 86.9052L86.1918 54.0264Z" fill="#64E6A4"></path>
<path opacity="0.1" d="M80.5287 67.1136C83.3001 65.1584 83.0189 61.9663 79.9665 58.854L79.846 58.7343C74.7565 61.4121 68.9374 62.3997 63.2417 61.5523C57.5461 60.705 52.2735 58.0673 48.1968 54.0259C47.3313 53.1637 46.4052 52.3636 45.4255 51.6318C42.2525 53.5471 42.0517 56.7791 45.4656 60.2905C48.8796 63.8018 54.1812 66.3555 60.4468 67.9914C64.3025 68.9491 67.7164 69.6274 71.291 71.1836C74.8656 72.7397 76.9943 74.2161 78.6812 75.9717C78.5205 73.5377 78.8419 68.3506 80.5287 67.1136Z" fill="#091E42"></path>
<path d="M78.6812 25.1771C82.7519 25.1606 86.7221 26.4327 90.0161 28.8089C93.31 31.1851 95.7565 34.5419 97.0008 38.3925C98.245 42.2431 98.2223 46.3873 96.936 50.2243C95.6496 54.0612 93.1665 57.3914 89.8468 59.7318C86.7541 61.8466 83.7418 63.3229 81.573 66.5151C79.6865 69.3276 78.6803 72.6319 78.6812 76.0116C78.6678 72.6281 77.6477 69.3241 75.7492 66.5151C73.5804 63.3229 70.5681 61.8466 67.4754 59.7318C64.1528 57.3894 61.6683 54.0557 60.3828 50.2148C59.0974 46.3739 59.0779 42.2259 60.3273 38.3733C61.5767 34.5207 64.0298 31.1641 67.3303 28.791C70.6309 26.418 74.607 25.152 78.6812 25.1771V25.1771ZM78.6812 38.0653C77.2672 38.0653 75.885 38.4819 74.7093 39.2623C73.5336 40.0427 72.6173 41.152 72.0762 42.4498C71.5351 43.7476 71.3935 45.1756 71.6694 46.5534C71.9452 47.9311 72.6261 49.1967 73.6259 50.19C74.6258 51.1833 75.8996 51.8597 77.2864 52.1338C78.6733 52.4078 80.1107 52.2672 81.4171 51.7296C82.7234 51.192 83.84 50.2817 84.6255 49.1137C85.4111 47.9457 85.8304 46.5725 85.8304 45.1678C85.8198 43.2873 85.0632 41.4868 83.7248 40.1571C82.3863 38.8274 80.574 38.0758 78.6812 38.0653V38.0653Z" fill="url(#paint0_linear_54_8211)"></path>
<path d="M33.8984 73.9762C33.8441 73.9826 33.7891 73.9767 33.7374 73.9589C33.6857 73.9411 33.6388 73.9119 33.6001 73.8735C33.5615 73.8351 33.5321 73.7885 33.5142 73.7372C33.4963 73.6858 33.4903 73.6311 33.4968 73.5772C33.4886 72.339 33.1112 71.131 32.4124 70.1058C31.7698 69.188 30.9665 68.6693 30.0427 68.0708L29.2796 67.5521C27.9154 66.5841 26.896 65.2107 26.3683 63.6299C25.8406 62.0491 25.8319 60.3427 26.3435 58.7567C26.8551 57.1707 27.8605 55.7872 29.2147 54.8055C30.5689 53.8239 32.202 53.2949 33.8784 53.2949C35.5547 53.2949 37.1878 53.8239 38.542 54.8055C39.8963 55.7872 40.9017 57.1707 41.4132 58.7567C41.9248 60.3427 41.9161 62.0491 41.3884 63.6299C40.8607 65.2107 39.8413 66.5841 38.4771 67.5521L37.714 68.0708C36.7902 68.6693 35.987 69.188 35.3443 70.1058C34.6575 71.1344 34.294 72.3428 34.3001 73.5772C34.3001 73.683 34.2578 73.7845 34.1824 73.8593C34.1071 73.9342 34.005 73.9762 33.8984 73.9762ZM33.8984 54.1053C32.013 54.1053 30.2048 54.8493 28.8716 56.1738C27.5384 57.4983 26.7894 59.2947 26.7894 61.1678C26.7843 62.2823 27.0478 63.3819 27.5579 64.3745C28.068 65.3672 28.8098 66.2241 29.7214 66.8737L30.4845 67.3925C31.4484 68.0309 32.3722 68.5895 33.055 69.6668C33.4141 70.1545 33.6983 70.6923 33.8984 71.2629C34.0674 70.6872 34.3396 70.1466 34.7017 69.6668C35.3845 68.5895 36.3083 68.0309 37.2722 67.3925L38.0353 66.8737C38.9469 66.2241 39.6888 65.3672 40.1988 64.3745C40.7089 63.3819 40.9724 62.2823 40.9673 61.1678C40.9673 59.3016 40.2239 57.5112 38.8993 56.1879C37.5748 54.8645 35.7769 54.1158 33.8984 54.1053V54.1053Z" fill="white"></path>
<defs>
<linearGradient id="paint0_linear_54_8211" x1="59.4587" y1="50.6023" x2="97.8755" y2="50.6023" gradientUnits="userSpaceOnUse">
<stop offset="0.23" stop-color="#0065FF"></stop>
<stop offset="0.46" stop-color="#1A75FF"></stop>
<stop offset="0.94" stop-color="#5D9DFF"></stop>
<stop offset="1" stop-color="#66A3FF"></stop>
</linearGradient>
</defs>
</svg>
